<?xml version="1.0" standalone="no"?>
<!DOCTYPE svg PUBLIC "-//W3C//DTD SVG 20010904//EN"
 "http://www.w3.org/TR/2001/REC-SVG-20010904/DTD/svg10.dtd">
<svg version="1.0" xmlns="http://www.w3.org/2000/svg"
 width="512.000000pt" height="512.000000pt" viewBox="0 0 512.000000 512.000000"
 preserveAspectRatio="xMidYMid meet">
<metadata>
Created by potrace 1.14, written by Peter Selinger 2001-2017
</metadata>
<g transform="translate(0.000000,512.000000) scale(0.100000,-0.100000)"
fill="#000000" stroke="none">
<path d="M3079 3805 c-2 -2 -24 -6 -49 -10 -24 -4 -49 -10 -55 -13 -5 -4 -12
-7 -15 -8 -104 -20 -270 -130 -370 -244 -25 -29 -53 -61 -62 -71 -10 -10 -15
-19 -11 -19 4 0 -2 -7 -13 -15 -10 -8 -15 -15 -10 -15 5 0 0 -8 -10 -17 -11
-10 -31 -36 -44 -58 -12 -22 -38 -63 -57 -92 -18 -28 -33 -54 -33 -56 0 -3
-20 -40 -45 -81 -25 -42 -45 -78 -45 -80 0 -2 -34 -68 -76 -147 -42 -79 -94
-178 -116 -219 -58 -111 -182 -293 -242 -355 -29 -30 -50 -57 -48 -60 3 -3 0
-5 -6 -5 -6 0 -24 -13 -39 -29 -31 -32 -72 -58 -148 -94 -68 -32 -168 -35
-253 -7 -60 20 -77 28 -167 81 -93 54 -255 188 -255 210 0 5 -6 9 -12 9 -7 0
-23 13 -35 28 -12 16 -33 40 -45 53 -44 48 -90 108 -88 115 1 4 -5 11 -14 16
-9 5 -16 14 -16 19 0 6 -11 25 -24 42 -27 37 -100 189 -112 232 -1 6 -10 37
-19 70 -55 197 16 399 158 452 45 17 264 22 289 7 7 -5 24 -9 38 -10 61 -5
339 -79 425 -113 11 -5 47 -18 80 -31 33 -12 69 -25 80 -30 43 -18 55 -19 55
-7 0 16 -177 132 -232 153 -10 3 -18 9 -18 13 0 4 -25 18 -55 31 -30 13 -55
28 -55 32 0 4 -4 8 -9 8 -5 0 -51 20 -103 44 -129 60 -306 119 -428 142 -58
11 -281 12 -314 1 -17 -6 -51 -17 -76 -26 -25 -9 -48 -15 -52 -13 -5 1 -8 -1
-8 -6 0 -4 -14 -13 -31 -21 -17 -7 -57 -40 -89 -72 -64 -64 -110 -148 -135
-244 -20 -76 -18 -224 5 -330 17 -82 58 -216 69 -225 3 -3 7 -12 9 -20 5 -25
64 -145 74 -151 5 -3 11 -12 13 -20 10 -42 19 -59 32 -59 8 0 12 -3 9 -8 -2
-4 9 -26 25 -50 16 -23 29 -45 29 -48 0 -3 9 -14 20 -26 11 -12 20 -28 20 -35
0 -8 5 -11 10 -8 6 3 10 1 10 -6 0 -27 297 -339 322 -339 6 0 8 -3 5 -7 -4 -3
7 -14 23 -24 17 -11 30 -24 30 -29 0 -6 4 -9 9 -6 4 3 19 -6 31 -19 13 -14 27
-25 31 -25 5 0 38 -21 74 -46 36 -25 65 -42 65 -38 0 4 8 0 18 -8 15 -13 53
-32 137 -68 39 -18 146 -49 183 -55 21 -3 48 -7 61 -10 66 -12 186 -4 266 18
48 13 155 63 165 76 3 4 25 22 50 41 62 48 126 115 200 210 14 18 30 37 35 44
28 29 74 104 68 110 -4 3 0 6 9 6 8 0 28 25 43 55 16 30 35 57 43 60 7 2 11 9
8 14 -3 4 3 16 14 26 11 10 20 24 20 32 0 7 5 13 11 13 5 0 8 4 5 9 -3 5 1 14
9 21 8 7 15 19 15 27 0 8 5 11 10 8 6 -3 10 0 10 7 0 7 15 36 33 63 17 28 38
62 44 78 7 15 17 27 23 27 6 0 9 4 6 9 -4 5 -1 11 4 13 6 2 12 12 14 21 1 10
7 22 12 25 12 9 44 62 51 85 3 9 9 17 14 17 5 0 9 6 9 13 0 7 9 23 20 35 11
12 20 28 20 37 0 8 4 15 8 15 5 0 19 20 32 45 13 25 27 45 32 45 4 0 8 5 8 10
0 14 41 72 58 83 6 4 12 13 12 18 0 11 52 89 73 111 8 7 16 18 18 24 5 15 56
78 97 120 17 18 32 35 32 38 0 9 59 66 69 66 6 0 11 5 11 10 0 11 90 100 101
100 3 0 17 11 31 24 49 44 208 114 292 128 44 7 81 18 83 24 6 17 -157 82
-247 99 -40 7 -236 16 -241 10z"/>
<path d="M3505 3475 c-79 -21 -150 -52 -176 -77 -8 -7 -31 -24 -51 -38 -20
-13 -34 -28 -32 -32 3 -4 1 -8 -4 -8 -14 0 -62 -47 -55 -54 4 -3 0 -6 -8 -6
-8 0 -23 -11 -33 -25 -11 -14 -29 -36 -40 -49 -12 -13 -30 -36 -41 -51 -11
-14 -28 -35 -37 -46 -10 -10 -18 -22 -18 -25 0 -4 -49 -73 -78 -109 -4 -5 -25
-38 -46 -72 -20 -35 -42 -63 -47 -63 -6 0 -7 -4 -4 -10 3 -5 1 -10 -6 -10 -7
0 -9 -3 -6 -6 4 -4 -2 -19 -13 -34 -11 -16 -20 -31 -20 -35 0 -3 -6 -13 -12
-20 -30 -33 -38 -45 -32 -45 3 0 -5 -15 -20 -34 -14 -19 -26 -42 -26 -52 0
-10 -3 -14 -6 -11 -6 6 -32 -35 -70 -110 -9 -18 -20 -33 -24 -33 -4 0 -11 -11
-14 -25 -4 -14 -11 -25 -16 -25 -6 0 -10 -5 -10 -11 0 -6 -13 -29 -29 -52 -15
-23 -30 -46 -32 -52 -7 -18 -84 -130 -92 -133 -4 -2 -5 -8 -2 -12 3 -5 -5 -16
-17 -24 -12 -9 -18 -16 -13 -16 6 0 1 -7 -9 -15 -11 -8 -17 -15 -13 -15 5 0 3
-6 -3 -12 -6 -7 -27 -35 -47 -63 -51 -69 -50 -67 -75 -97 -13 -15 -36 -43 -53
-64 -35 -43 -158 -169 -165 -169 -5 0 -40 -28 -65 -52 -8 -7 -17 -13 -21 -13
-4 0 -15 -6 -23 -14 -18 -16 -138 -79 -161 -84 -8 -1 -24 -4 -35 -6 -11 -2
-20 -4 -20 -5 0 -6 -45 -12 -93 -13 -88 -1 -81 -10 58 -68 100 -41 188 -59
323 -63 49 -2 96 4 199 28 10 2 32 10 50 18 18 8 48 21 66 28 17 8 32 17 32
20 0 4 8 10 18 13 42 15 124 78 176 135 17 19 39 41 49 50 10 9 28 33 39 53
12 20 26 34 32 31 6 -3 8 -3 4 2 -5 5 3 23 17 40 13 18 21 35 18 39 -4 3 -1 6
5 6 6 0 19 15 28 33 9 17 20 34 24 37 4 3 18 24 30 48 12 23 26 42 32 42 5 0
7 3 5 8 -6 10 28 73 37 67 3 -3 4 -2 1 2 -3 3 2 17 10 30 9 13 12 23 8 23 -5
0 -3 4 3 8 6 4 24 32 39 62 15 30 35 66 45 80 10 14 18 28 19 32 4 17 34 83
40 88 3 3 20 33 36 67 17 35 33 63 38 63 4 0 7 6 7 13 0 7 11 29 25 48 13 20
21 39 18 43 -4 3 -1 6 6 6 7 0 17 14 22 30 6 17 15 30 20 30 5 0 9 5 9 11 0
12 59 92 72 97 5 2 8 8 8 13 0 9 137 148 180 183 13 10 53 34 89 54 60 32 73
35 146 35 57 -1 96 -7 135 -22 30 -12 60 -23 65 -24 6 -1 12 -4 15 -7 3 -3 22
-14 43 -25 20 -11 37 -23 37 -28 0 -4 4 -6 9 -3 5 4 11 3 13 -1 1 -5 26 -24
53 -43 54 -37 69 -49 118 -93 65 -58 87 -81 87 -89 0 -4 7 -8 15 -8 8 0 15 -6
15 -14 0 -7 11 -21 25 -30 14 -9 25 -21 25 -27 0 -5 11 -21 24 -34 14 -14 33
-38 42 -55 10 -16 22 -30 26 -30 4 0 8 -7 8 -15 0 -8 5 -15 11 -15 5 0 7 -4 4
-10 -3 -5 -2 -10 3 -10 18 0 120 -224 137 -299 32 -145 11 -300 -50 -365 -14
-15 -24 -30 -23 -34 2 -13 -87 -62 -123 -68 -49 -8 -176 -7 -229 1 -25 4 -56
9 -70 10 -14 2 -47 9 -75 15 -27 6 -54 12 -60 13 -5 2 -16 6 -23 11 -7 4 -16
6 -18 3 -3 -3 -31 4 -62 15 -31 11 -64 21 -72 23 -23 5 -177 59 -251 89 -65
26 -89 31 -89 20 0 -10 28 -34 39 -34 6 0 11 -4 11 -10 0 -5 4 -10 9 -10 5 0
35 -17 67 -37 31 -21 59 -37 61 -35 2 1 13 -7 25 -18 13 -12 33 -23 45 -26 13
-4 23 -10 23 -15 0 -5 6 -9 13 -9 7 0 19 -6 26 -12 6 -7 15 -13 19 -14 4 0 60
-26 125 -57 64 -31 119 -57 121 -57 3 0 17 -5 33 -12 15 -6 30 -12 33 -13 3 0
34 -11 70 -22 94 -32 143 -43 245 -59 75 -12 234 -5 300 12 38 10 99 38 169
78 33 19 106 98 133 144 15 25 37 75 50 111 20 59 22 80 19 216 -2 82 -8 164
-13 180 -6 17 -21 63 -33 103 -13 39 -27 72 -32 72 -5 0 -6 4 -3 10 9 14 -84
199 -156 310 -106 165 -233 312 -405 470 -27 25 -59 52 -71 60 -12 8 -57 40
-100 70 -85 59 -256 150 -283 150 -9 0 -20 4 -25 9 -14 12 -136 44 -142 37 -4
-3 -12 -1 -18 4 -7 6 -57 12 -112 14 -77 2 -116 -2 -178 -19z"/>
</g>
</svg>
